<svg width="42" height="41" viewBox="0 0 42 41" fill="none" xmlns="http://www.w3.org/2000/svg">
<rect width="42" height="41" rx="20.5" fill="#F5F5F5"/>
<path d="M20.9999 12.7083C16.6967 12.7083 13.2083 16.1968 13.2083 20.5C13.2083 24.8032 16.6967 28.2917 20.9999 28.2917C25.0494 28.2917 28.3769 25.2028 28.7557 21.2523C28.7733 21.0685 28.6789 20.892 28.5161 20.8047C28.3533 20.7174 28.1541 20.7363 28.0107 20.8527C27.2226 21.4922 26.2191 21.875 25.1249 21.875C22.5936 21.875 20.5416 19.823 20.5416 17.2917C20.5416 15.7882 21.265 14.4539 22.3846 13.6174C22.5327 13.5068 22.5998 13.3181 22.5549 13.1388C22.51 12.9596 22.3618 12.8248 22.1791 12.7971C21.7943 12.7386 21.4005 12.7083 20.9999 12.7083Z" fill="#555555"/>
</svg>
