<svg width="25" height="24" viewBox="0 0 25 24" fill="none" xmlns="http://www.w3.org/2000/svg">
<g clip-path="url(#clip0_2_618)">
<path d="M0.580078 12C0.580078 5.37258 5.95266 0 12.5801 0C19.2075 0 24.5801 5.37258 24.5801 12C24.5801 18.6274 19.2075 24 12.5801 24C5.95266 24 0.580078 18.6274 0.580078 12Z" fill="#BA8D5B"/>
<path fill-rule="evenodd" clip-rule="evenodd" d="M9.23956 7.41135C9.23956 8.1959 8.649 8.82367 7.70077 8.82367H7.68339C6.77041 8.82367 6.18018 8.1959 6.18018 7.41135C6.18018 6.6102 6.78838 6 7.71869 6C8.649 6 9.22191 6.6102 9.23956 7.41135ZM9.06047 9.93886V18.1097H6.34101V9.93886H9.06047ZM18.8681 18.1098L18.8682 13.4249C18.8682 10.9152 17.5266 9.74713 15.7371 9.74713C14.2932 9.74713 13.6468 10.5402 13.2858 11.0965V9.93921H10.566C10.6019 10.7059 10.566 18.1101 10.566 18.1101H13.2858V13.5468C13.2858 13.3026 13.3035 13.059 13.3754 12.8841C13.5719 12.3963 14.0195 11.8912 14.7708 11.8912C15.7552 11.8912 16.1487 12.6404 16.1487 13.7384V18.1098H18.8681Z" fill="white"/>
</g>
<defs>
<clipPath id="clip0_2_618">
<rect width="24" height="24" fill="white" transform="translate(0.580078)"/>
</clipPath>
</defs>
</svg>
